<svg width="32" height="32" viewBox="0 0 32 32" fill="none" xmlns="http://www.w3.org/2000/svg">
<g filter="url(#filter0_d_6_294)">
<path d="M16 0C9.373 0 4 5.373 4 12C4 18.627 9.373 24 16 24C22.627 24 28 18.627 28 12C28 5.373 22.627 0 16 0ZM19.227 18.184C17.637 18.086 14.51 16.26 13.053 14.62C11.6 12.979 10.157 9.657 10.252 8.064C10.252 8.064 11.984 5.773 12.779 5.819C13.58 5.867 15.822 8.395 14.974 9.147C14.134 9.894 13.337 9.848 13.29 10.641C13.245 11.436 13.991 12.282 14.735 13.124C15.487 13.97 16.233 14.809 17.03 14.854C17.825 14.904 17.874 14.111 18.714 13.359C19.558 12.611 21.804 15.143 21.755 15.938C21.711 16.73 19.227 18.184 19.227 18.184Z" fill="white"/>
</g>
<defs>
<filter id="filter0_d_6_294" x="0" y="0" width="32" height="32" filterUnits="userSpaceOnUse" color-interpolation-filters="sRGB">
<feFlood flood-opacity="0" result="BackgroundImageFix"/>
<feColorMatrix in="SourceAlpha" type="matrix" values="0 0 0 0 0 0 0 0 0 0 0 0 0 0 0 0 0 0 127 0" result="hardAlpha"/>
<feOffset dy="4"/>
<feGaussianBlur stdDeviation="2"/>
<feComposite in2="hardAlpha" operator="out"/>
<feColorMatrix type="matrix" values="0 0 0 0 0 0 0 0 0 0 0 0 0 0 0 0 0 0 0.25 0"/>
<feBlend mode="normal" in2="BackgroundImageFix" result="effect1_dropShadow_6_294"/>
<feBlend mode="normal" in="SourceGraphic" in2="effect1_dropShadow_6_294" result="shape"/>
</filter>
</defs>
</svg>
